<svg viewBox="7.608 2.048 28.614 27.164" xmlns="http://www.w3.org/2000/svg">
  <defs></defs>
  <g transform="matrix(1, 0, 0, 1, -55.718475, -32.991203)">
    <rect x="56.559" y="33.065" width="41.568" height="31.197" style="stroke: rgb(0, 0, 0); transform-box: fill-box; transform-origin: 47.4815% 53.3556%;"></rect>
    <ellipse style="fill: none; stroke: rgb(255, 255, 255); stroke-width: 3px; transform-box: fill-box; transform-origin: 38.014% 57.1952%;" cx="78.489" cy="48.394" rx="9.15" ry="9.15"></ellipse>
    <path stroke="rgb(255,0,0)" d="M 79.741 34.529 C 80.408 34.393 81.108 34.441 81.774 34.529 C 82.446 34.617 82.993 34.78 83.755 35.065 C 84.729 35.426 86.28 36.078 87.179 36.669 C 87.925 37.158 88.439 37.702 88.918 38.247 C 89.359 38.748 89.617 39.135 89.99 39.799 C 90.48 40.671 91.202 41.983 91.542 43.17 C 91.886 44.373 91.945 45.752 92.024 46.971 C 92.097 48.119 92.161 49.432 92.024 50.289 C 91.921 50.928 91.756 51.331 91.489 51.787 C 91.215 52.251 90.808 52.716 90.392 53.045 C 89.991 53.359 89.562 53.596 89.054 53.74 C 88.489 53.901 87.722 53.973 87.127 53.901 C 86.568 53.832 86.042 53.636 85.575 53.366 C 85.106 53.093 84.659 52.743 84.317 52.269 C 83.939 51.742 83.647 51.149 83.462 50.289 C 83.208 49.122 83.538 46.82 83.248 45.686 C 83.033 44.858 82.72 44.266 82.258 43.841 C 81.822 43.439 81.179 43.305 80.598 43.145 C 80.004 42.98 79.311 43.123 78.725 42.877 C 78.104 42.615 77.415 42.069 76.986 41.566 C 76.593 41.104 76.336 40.57 76.184 40.014 C 76.029 39.448 75.998 38.767 76.076 38.195 C 76.151 37.646 76.34 37.109 76.611 36.641 C 76.885 36.172 77.229 35.727 77.708 35.385 C 78.243 35.003 79.052 34.668 79.741 34.529 Z" style="stroke: rgb(129, 151, 57); stroke-width: 0px; transform-box: fill-box; transform-origin: 1.62164% 78.3539%;"></path>
  </g>
</svg>